:SAMPLES-PER-SECOND 30
:FRAME-RANGE 1-3535
:FULLY-SPECIFIED
:DEGREES
3204
root  -75.1427 37.886 13.671 179.249 23.5389 169.743
RightUpLeg  9.42639 5.00884 -6.637
RightLeg  19.3371 -9.77529 -4.03156
RightFoot  -25.1206 0.776857 7.83222
RightToes  1.22775e-009 1.2921e-014 -6.02303e-014
Spine  7.20807 0.678499 -2.72884
Spine1  2.29571 2.15347 -7.5369
HEad  -11.3878 -31.2441 10.6486
LeftShoulder1  1.02797 0.82587 -32.3188
LeftArm  6.7843 17.3033 -21.5699
LeftForeArm  5.02269 0.655089 -18.5349
LeftHand  0.507861 -1.69983 -8.18453
RightShoulder  7.51424 9.82693 49.3806
RightArm  36.719 -2.80548 22.0996
RightForeArm  3.39839 29.9704 6.3475
RightHand  0.450485 5.29173 4.57321
LeftUpLeg  -16.3087 13.419 1.14576
LeftLeg  16.4126 -8.04524 -2.64356
LeftFoot  -4.79466 0.927464 -15.6349
LeftToes  2.52163e-011 5.65494e-011 -1.09494e-012
3205
root  -75.4701 37.8027 12.7802 178.552 26.9442 170.251
RightUpLeg  4.6304 2.63922 -8.68264
RightLeg  30.8119 -6.97177 -4.70335
RightFoot  -22.038 1.37529 16.1983
RightToes  1.22775e-009 1.2921e-014 -6.02303e-014
Spine  7.75112 1.26864 -4.20225
Spine1  2.86214 2.47891 -7.74352
HEad  -9.96012 -29.3891 10.2929
LeftShoulder1  1.15558 0.457928 -31.8773
LeftArm  8.48037 14.2366 -22.2027
LeftForeArm  3.55453 1.87922 -18.9584
LeftHand  0.463297 -1.37869 -7.8432
RightShoulder  7.50321 9.51812 50.4712
RightArm  41.3871 -2.67354 20.9262
RightForeArm  -7.14523 21.7059 6.16259
RightHand  0.23433 4.13323 2.58032
LeftUpLeg  -15.4857 14.5225 1.52243
LeftLeg  20.1177 -6.48983 -2.34106
LeftFoot  -8.31345 0.462198 -15.5316
LeftToes  2.52163e-011 5.65494e-011 -1.09494e-012
3206
root  -75.7219 37.9261 11.8755 178.487 29.9906 171.182
RightUpLeg  -2.65519 -1.75519 -9.64345
RightLeg  44.0558 -7.47136 -7.96718
RightFoot  -12.9917 0.142658 15.9679
RightToes  1.22775e-009 1.2921e-014 -6.02303e-014
Spine  8.05533 1.34504 -5.58841
Spine1  2.92146 2.12173 -6.93919
HEad  -8.61619 -26.6537 9.80422
LeftShoulder1  1.12838 0.460468 -31.0114
LeftArm  7.58619 11.913 -22.8165
LeftForeArm  4.2622 1.81198 -18.8385
LeftHand  0.484171 -1.3704 -8.21201
RightShoulder  7.31354 9.34986 49.846
RightArm  45.9133 -4.18062 19.3353
RightForeArm  -14.748 20.764 7.53933
RightHand  0.16976 2.5969 2.26408
LeftUpLeg  -13.6285 14.7053 2.2534
LeftLeg  20.8272 -4.15637 -1.68672
LeftFoot  -10.1411 0.217606 -14.9287
LeftToes  2.52163e-011 5.65494e-011 -1.09494e-012
3207
root  -75.8857 38.1419 10.933 178.284 31.5761 172.053
RightUpLeg  -10.2496 -6.95229 -9.06765
RightLeg  55.4425 -9.5021 -14.8592
RightFoot  -1.07891 -0.403121 4.40411
RightToes  1.22775e-009 1.2921e-014 -6.02303e-014
Spine  8.66456 0.870288 -6.96901
Spine1  2.77423 1.13039 -5.0509
HEad  -8.19655 -24.2177 9.57085
LeftShoulder1  1.19425 0.228514 -30.3946
LeftArm  7.81341 9.10871 -22.8077
LeftForeArm  5.16118 0.644178 -18.6517
LeftHand  0.469344 -1.70202 -7.55188
RightShoulder  6.53842 8.49104 47.7509
RightArm  50.0954 -7.46778 17.4273
RightForeArm  -14.2653 25.7795 6.23605
RightHand  0.382467 2.97841 5.07981
LeftUpLeg  -10.8393 15.7298 2.9338
LeftLeg  19.9266 -3.81274 -1.90164
LeftFoot  -11.4185 0.058255 -14.569
LeftToes  2.52163e-011 5.65494e-011 -1.09494e-012
3208
root  -75.9789 38.218 10.0428 178.089 32.9146 172.324
RightUpLeg  -16.6839 -11.8807 -8.17838
RightLeg  61.7272 -7.24883 -14.805
RightFoot  -2.83544 -0.455396 5.85782
RightToes  1.22775e-009 1.2921e-014 -6.02303e-014
Spine  8.98525 0.547187 -8.05789
Spine1  2.97776 0.535639 -4.5739
HEad  -8.56669 -22.6 9.67865
LeftShoulder1  1.35363 -0.263611 -29.8619
LeftArm  8.34786 4.91682 -22.4699
LeftForeArm  5.09097 -0.0264871 -18.6294
LeftHand  0.441771 -2.0341 -6.75139
RightShoulder  5.30476 6.80633 45.0113
RightArm  49.3619 -10.5554 15.5799
RightForeArm  -2.98094 31.7797 7.15744
RightHand  0.558489 3.67523 6.88499
LeftUpLeg  -8.76255 15.485 3.20078
LeftLeg  19.6774 -2.42962 -2.18598
LeftFoot  -12.941 -0.123286 -14.2989
LeftToes  2.52163e-011 5.65494e-011 -1.09494e-012
3209
root  -75.9969 38.2525 9.12724 177.852 34.1619 172.373
RightUpLeg  -22.655 -15.7703 -6.14957
RightLeg  63.4095 -5.03719 -11.3862
RightFoot  -3.54028 -0.574144 8.05295
RightToes  1.22775e-009 1.2921e-014 -6.02303e-014
Spine  9.39512 0.0685552 -8.64518
Spine1  2.68096 0.0280568 -4.87944
HEad  -8.79832 -20.9661 9.54488
LeftShoulder1  1.45077 -0.541354 -29.799
LeftArm  8.83673 -0.0766971 -20.9228
LeftForeArm  4.45062 -0.65262 -18.6287
LeftHand  0.353128 -1.84168 -5.52585
RightShoulder  4.20782 5.27193 41.7891
RightArm  49.2679 -13.8568 14.4449
RightForeArm  7.28181 38.0971 8.34585
RightHand  0.594878 4.20235 6.90828
LeftUpLeg  -6.60004 14.4443 3.32663
LeftLeg  19.186 -0.245937 -2.54379
LeftFoot  -14.3896 -0.286538 -13.9386
LeftToes  2.52163e-011 5.65494e-011 -1.09494e-012
3210
root  -75.9175 38.2629 8.14858 177.595 35.4342 172.577
RightUpLeg  -27.7248 -18.3361 -3.03292
RightLeg  61.5398 -4.52813 -9.50357
RightFoot  -3.88157 -0.502486 7.29148
RightToes  1.22775e-009 1.2921e-014 -6.02303e-014
Spine  9.70001 -0.605647 -8.66799
Spine1  2.19486 -0.504824 -5.39202
HEad  -8.3001 -19.3308 9.52383
LeftShoulder1  1.50574 -0.688601 -29.8532
LeftArm  5.10641 -4.85244 -18.8778
LeftForeArm  6.04444 -0.262025 -18.3971
LeftHand  0.301574 -1.2701 -5.15973
RightShoulder  3.5231 4.37234 38.7496
RightArm  49.3516 -17.0396 13.8454
RightForeArm  12.2258 43.2988 9.73574
RightHand  0.610624 4.12352 7.16225
LeftUpLeg  -4.11933 13.2053 3.42889
LeftLeg  18.4765 2.0695 -2.62848
LeftFoot  -15.819 -0.438704 -13.5836
LeftToes  2.52163e-011 5.65494e-011 -1.09494e-012
3211
root  -75.7497 38.2976 7.13917 177.353 36.676 172.782
RightUpLeg  -31.5038 -19.8283 0.250974
RightLeg  56.2337 -6.42514 -10.6347
RightFoot  -5.11359 -0.476638 8.10691
RightToes  1.22775e-009 1.2921e-014 -6.02303e-014
Spine  9.81807 -1.25187 -8.66488
Spine1  1.58095 -1.04439 -5.33306
HEad  -7.36743 -18.0102 9.1581
LeftShoulder1  1.56342 -0.846524 -29.8777
LeftArm  0.828472 -9.09515 -16.9858
LeftForeArm  7.2482 0.0788335 -18.1135
LeftHand  0.273883 -1.41426 -4.56171
RightShoulder  3.10948 3.81746 36.5706
RightArm  48.9223 -19.865 13.1091
RightForeArm  12.919 47.3527 11.2505
RightHand  0.595106 3.18742 7.80819
LeftUpLeg  -1.17933 11.9528 3.29583
LeftLeg  16.8218 4.41684 -2.52475
LeftFoot  -16.6115 -0.504768 -13.0759
LeftToes  2.52163e-011 5.65494e-011 -1.09494e-012
3212
root  -75.508 38.3231 6.14816 177.392 37.6641 173.036
RightUpLeg  -33.7619 -20.4895 3.29371
RightLeg  47.6502 -9.07005 -10.8069
RightFoot  -5.46298 -0.412991 7.30821
RightToes  1.22775e-009 1.2921e-014 -6.02303e-014
Spine  9.69477 -1.86377 -8.62185
Spine1  1.07181 -1.61504 -4.8212
HEad  -6.49899 -16.7027 8.76978
LeftShoulder1  1.59676 -0.967274 -29.6508
LeftArm  -2.85982 -13.0768 -15.7206
LeftForeArm  7.98401 0.198226 -17.8432
LeftHand  0.270023 -1.45645 -4.46364
RightShoulder  2.60962 2.82531 35.3714
RightArm  47.681 -21.6128 12.2173
RightForeArm  13.1166 50.3132 12.5576
RightHand  0.671846 3.11637 8.92048
LeftUpLeg  1.64803 10.9269 2.91508
LeftLeg  14.6703 6.32271 -2.21285
LeftFoot  -16.9943 -0.524389 -12.635
LeftToes  2.52163e-011 5.65494e-011 -1.09494e-012
3213
root  -75.1627 38.2714 5.16338 177.106 38.4601 173.108
RightUpLeg  -33.929 -20.0454 5.26556
RightLeg  36.8241 -10.7181 -8.74513
RightFoot  -5.25299 -0.458381 7.93291
RightToes  1.22775e-009 1.2921e-014 -6.02303e-014
Spine  9.87922 -2.20902 -8.94736
Spine1  0.554717 -2.11621 -3.84818
HEad  -5.9095 -15.6876 8.32781
LeftShoulder1  1.64887 -1.20309 -28.9588
LeftArm  -5.18549 -16.5847 -15.6286
LeftForeArm  8.21504 0.158722 -17.6617
LeftHand  0.265257 -1.60879 -4.27215
RightShoulder  1.95954 1.32075 34.8039
RightArm  45.1616 -22.9173 11.564
RightForeArm  14.0026 52.5739 13.6252
RightHand  0.706351 3.14642 9.35284
LeftUpLeg  4.78982 10.793 2.70007
LeftLeg  12.584 7.19011 -2.1814
LeftFoot  -17.6797 -0.613814 -12.9473
LeftToes  2.52163e-011 5.65494e-011 -1.09494e-012
